<svg width="1200" height="320" viewBox="0 0 1200 320" fill="none" xmlns="http://www.w3.org/2000/svg">
  <defs>
    <linearGradient id="bg" x1="0" y1="0" x2="1200" y2="320" gradientUnits="userSpaceOnUse">
      <stop offset="0" stop-color="#111827"/>
      <stop offset="0.48" stop-color="#1F2937"/>
      <stop offset="1" stop-color="#312E81"/>
    </linearGradient>
    <linearGradient id="line" x1="0" y1="0" x2="1" y2="0">
      <stop stop-color="#22D3EE"/>
      <stop offset="0.5" stop-color="#A78BFA"/>
      <stop offset="1" stop-color="#34D399"/>
    </linearGradient>
    <filter id="softGlow" x="-20%" y="-20%" width="140%" height="140%">
      <feGaussianBlur stdDeviation="10" result="blur"/>
      <feMerge>
        <feMergeNode in="blur"/>
        <feMergeNode in="SourceGraphic"/>
      </feMerge>
    </filter>
  </defs>

  <rect width="1200" height="320" rx="28" fill="url(#bg)"/>

  <g opacity="0.16">
    <path d="M0 62H1200" stroke="#E5E7EB"/>
    <path d="M0 122H1200" stroke="#E5E7EB"/>
    <path d="M0 182H1200" stroke="#E5E7EB"/>
    <path d="M0 242H1200" stroke="#E5E7EB"/>
    <path d="M120 0V320" stroke="#E5E7EB"/>
    <path d="M240 0V320" stroke="#E5E7EB"/>
    <path d="M360 0V320" stroke="#E5E7EB"/>
    <path d="M480 0V320" stroke="#E5E7EB"/>
    <path d="M600 0V320" stroke="#E5E7EB"/>
    <path d="M720 0V320" stroke="#E5E7EB"/>
    <path d="M840 0V320" stroke="#E5E7EB"/>
    <path d="M960 0V320" stroke="#E5E7EB"/>
    <path d="M1080 0V320" stroke="#E5E7EB"/>
  </g>

  <g filter="url(#softGlow)">
    <circle cx="1020" cy="78" r="46" fill="#22D3EE" opacity="0.28"/>
    <circle cx="1092" cy="218" r="64" fill="#A78BFA" opacity="0.20"/>
    <circle cx="128" cy="246" r="58" fill="#34D399" opacity="0.18"/>
  </g>

  <rect x="68" y="58" width="1064" height="204" rx="22" fill="#020617" opacity="0.58" stroke="url(#line)" stroke-width="2"/>

  <text x="96" y="118" fill="#9CA3AF" font-family="Consolas, 'Courier New', monospace" font-size="24">mayalajesus / python logic lab</text>
  <text x="96" y="176" fill="#F9FAFB" font-family="Inter, Segoe UI, Arial, sans-serif" font-weight="700" font-size="54">Lógica de Programação</text>
  <text x="96" y="222" fill="#C4B5FD" font-family="Inter, Segoe UI, Arial, sans-serif" font-size="28">156 exercícios • 7 notebooks • Python + Jupyter</text>

  <text x="820" y="138" fill="#22D3EE" font-family="Consolas, 'Courier New', monospace" font-size="24">if problema:</text>
  <text x="850" y="174" fill="#34D399" font-family="Consolas, 'Courier New', monospace" font-size="24">pensar()</text>
  <text x="850" y="210" fill="#A78BFA" font-family="Consolas, 'Courier New', monospace" font-size="24">resolver()</text>
</svg>
